<svg width="101" height="101" viewBox="0 0 101 101" fill="none" xmlns="http://www.w3.org/2000/svg">
<rect width="101" height="101" rx="9" fill="#0B1B2B"/>
<path d="M43.1477 48.8519L43.1478 48.852C44.6127 50.3169 44.6127 52.6827 43.1478 54.1476L43.1478 54.1477L16.152 81.1478C14.6871 82.6127 12.313 82.6127 10.8484 81.1479C9.38388 79.6829 9.38388 77.317 10.8484 75.8521L10.8484 75.852L34.6601 52.03L35.1902 51.4998L34.6601 50.9696L10.8484 27.1518C10.8483 27.1518 10.8483 27.1518 10.8483 27.1518C9.38397 25.6869 9.38389 23.3128 10.8481 21.8478C10.8481 21.8478 10.8482 21.8477 10.8482 21.8477C10.8482 21.8477 10.8483 21.8476 10.8484 21.8476C12.3129 20.3842 14.687 20.3841 16.1519 21.8476C16.152 21.8477 16.1521 21.8478 16.1522 21.8479L43.1477 48.8519ZM85.5 74.7499C87.5748 74.7499 89.25 76.4251 89.25 78.5C89.25 80.5748 87.5748 82.25 85.5 82.25H45C42.9252 82.25 41.25 80.5748 41.25 78.5C41.25 76.4251 42.9252 74.7499 45 74.7499H85.5Z" fill="#3294F8" stroke="#3294F8" stroke-width="1.5"/>
</svg>
